%
M48
M72
T01C0.0197
T02C0.0236
T03C0.0354
T04C0.0394
T05C0.0591
T06C0.0630
T07C0.0709
T08C0.1260
%
T01
X7974Y2687
X10927Y5383
X13112Y5561
X15080Y5246
X16635Y5324
X18919Y5305
X19332Y6112
X21754Y5718
X21793Y6486
X22954Y6506
X28840Y4163
X17817Y3356
X17029Y3356
X14273Y2706
X13092Y3218
X13742Y3710
X15553Y4439
X14647Y4557
X13565Y4734
X14234Y6939
X14706Y6939
X15179Y6939
X15651Y6939
T02
X7285Y7903
T03
X6493Y7501
X7293Y7101
X6493Y6701
X7293Y6301
X6493Y5901
X7293Y5501
X6493Y5101
X7293Y7901
T04
X19328Y10450
X20328Y10450
X21328Y10450
X22328Y10450
X23328Y10450
X24328Y10450
X25328Y10450
X26328Y10450
X27328Y10450
X28328Y10450
X29328Y10450
X30328Y10450
X31328Y10450
X32328Y10450
X33328Y10450
X34328Y10450
X35328Y10450
X36328Y10450
X37328Y10450
X38328Y10450
X38328Y3450
X37328Y3450
X36328Y3450
X35328Y3450
X34328Y3450
X33328Y3450
X32328Y3450
X31328Y3450
X30328Y3450
X29328Y3450
X28328Y3450
X27328Y3450
X26328Y3450
X25328Y3450
X24328Y3450
X23328Y3450
X22328Y3450
X21328Y3450
X20328Y3450
X19328Y3450
T05
X37084Y7905
X37084Y5996
T06
X3143Y3431
X3143Y9571
T07
X38277Y8023
X38277Y5878
T08
X4523Y4251
X4523Y8751
M30
