G75*
%MOIN*%
%OFA0B0*%
%FSLAX25Y25*%
%IPPOS*%
%LPD*%
%AMOC8*
5,1,8,0,0,1.08239X$1,22.5*
%
%ADD10C,0.00000*%
%ADD11R,0.06299X0.05118*%
D10*
X0001000Y0002063D02*
X0001000Y0128047D01*
X0394701Y0128047D01*
X0394701Y0002063D01*
X0184071Y0002063D01*
X0184071Y0009937D01*
X0184069Y0010061D01*
X0184063Y0010184D01*
X0184054Y0010308D01*
X0184040Y0010430D01*
X0184023Y0010553D01*
X0184001Y0010675D01*
X0183976Y0010796D01*
X0183947Y0010916D01*
X0183915Y0011035D01*
X0183878Y0011154D01*
X0183838Y0011271D01*
X0183795Y0011386D01*
X0183747Y0011501D01*
X0183696Y0011613D01*
X0183642Y0011724D01*
X0183584Y0011834D01*
X0183523Y0011941D01*
X0183458Y0012047D01*
X0183390Y0012150D01*
X0183319Y0012251D01*
X0183245Y0012350D01*
X0183168Y0012447D01*
X0183087Y0012541D01*
X0183004Y0012632D01*
X0182918Y0012721D01*
X0182829Y0012807D01*
X0182738Y0012890D01*
X0182644Y0012971D01*
X0182547Y0013048D01*
X0182448Y0013122D01*
X0182347Y0013193D01*
X0182244Y0013261D01*
X0182138Y0013326D01*
X0182031Y0013387D01*
X0181921Y0013445D01*
X0181810Y0013499D01*
X0181698Y0013550D01*
X0181583Y0013598D01*
X0181468Y0013641D01*
X0181351Y0013681D01*
X0181232Y0013718D01*
X0181113Y0013750D01*
X0180993Y0013779D01*
X0180872Y0013804D01*
X0180750Y0013826D01*
X0180627Y0013843D01*
X0180505Y0013857D01*
X0180381Y0013866D01*
X0180258Y0013872D01*
X0180134Y0013874D01*
X0095488Y0013874D01*
X0095364Y0013872D01*
X0095241Y0013866D01*
X0095117Y0013857D01*
X0094995Y0013843D01*
X0094872Y0013826D01*
X0094750Y0013804D01*
X0094629Y0013779D01*
X0094509Y0013750D01*
X0094390Y0013718D01*
X0094271Y0013681D01*
X0094154Y0013641D01*
X0094039Y0013598D01*
X0093924Y0013550D01*
X0093812Y0013499D01*
X0093701Y0013445D01*
X0093591Y0013387D01*
X0093484Y0013326D01*
X0093378Y0013261D01*
X0093275Y0013193D01*
X0093174Y0013122D01*
X0093075Y0013048D01*
X0092978Y0012971D01*
X0092884Y0012890D01*
X0092793Y0012807D01*
X0092704Y0012721D01*
X0092618Y0012632D01*
X0092535Y0012541D01*
X0092454Y0012447D01*
X0092377Y0012350D01*
X0092303Y0012251D01*
X0092232Y0012150D01*
X0092164Y0012047D01*
X0092099Y0011941D01*
X0092038Y0011834D01*
X0091980Y0011724D01*
X0091926Y0011613D01*
X0091875Y0011501D01*
X0091827Y0011386D01*
X0091784Y0011271D01*
X0091744Y0011154D01*
X0091707Y0011035D01*
X0091675Y0010916D01*
X0091646Y0010796D01*
X0091621Y0010675D01*
X0091599Y0010553D01*
X0091582Y0010430D01*
X0091568Y0010308D01*
X0091559Y0010184D01*
X0091553Y0010061D01*
X0091551Y0009937D01*
X0091551Y0002063D01*
X0001000Y0002063D01*
X0038934Y0042512D02*
X0038936Y0042670D01*
X0038942Y0042828D01*
X0038952Y0042986D01*
X0038966Y0043144D01*
X0038984Y0043301D01*
X0039005Y0043458D01*
X0039031Y0043614D01*
X0039061Y0043770D01*
X0039094Y0043925D01*
X0039132Y0044078D01*
X0039173Y0044231D01*
X0039218Y0044383D01*
X0039267Y0044534D01*
X0039320Y0044683D01*
X0039376Y0044831D01*
X0039436Y0044977D01*
X0039500Y0045122D01*
X0039568Y0045265D01*
X0039639Y0045407D01*
X0039713Y0045547D01*
X0039791Y0045684D01*
X0039873Y0045820D01*
X0039957Y0045954D01*
X0040046Y0046085D01*
X0040137Y0046214D01*
X0040232Y0046341D01*
X0040329Y0046466D01*
X0040430Y0046588D01*
X0040534Y0046707D01*
X0040641Y0046824D01*
X0040751Y0046938D01*
X0040864Y0047049D01*
X0040979Y0047158D01*
X0041097Y0047263D01*
X0041218Y0047365D01*
X0041341Y0047465D01*
X0041467Y0047561D01*
X0041595Y0047654D01*
X0041725Y0047744D01*
X0041858Y0047830D01*
X0041993Y0047914D01*
X0042129Y0047993D01*
X0042268Y0048070D01*
X0042409Y0048142D01*
X0042551Y0048212D01*
X0042695Y0048277D01*
X0042841Y0048339D01*
X0042988Y0048397D01*
X0043137Y0048452D01*
X0043287Y0048503D01*
X0043438Y0048550D01*
X0043590Y0048593D01*
X0043743Y0048632D01*
X0043898Y0048668D01*
X0044053Y0048699D01*
X0044209Y0048727D01*
X0044365Y0048751D01*
X0044522Y0048771D01*
X0044680Y0048787D01*
X0044837Y0048799D01*
X0044996Y0048807D01*
X0045154Y0048811D01*
X0045312Y0048811D01*
X0045470Y0048807D01*
X0045629Y0048799D01*
X0045786Y0048787D01*
X0045944Y0048771D01*
X0046101Y0048751D01*
X0046257Y0048727D01*
X0046413Y0048699D01*
X0046568Y0048668D01*
X0046723Y0048632D01*
X0046876Y0048593D01*
X0047028Y0048550D01*
X0047179Y0048503D01*
X0047329Y0048452D01*
X0047478Y0048397D01*
X0047625Y0048339D01*
X0047771Y0048277D01*
X0047915Y0048212D01*
X0048057Y0048142D01*
X0048198Y0048070D01*
X0048337Y0047993D01*
X0048473Y0047914D01*
X0048608Y0047830D01*
X0048741Y0047744D01*
X0048871Y0047654D01*
X0048999Y0047561D01*
X0049125Y0047465D01*
X0049248Y0047365D01*
X0049369Y0047263D01*
X0049487Y0047158D01*
X0049602Y0047049D01*
X0049715Y0046938D01*
X0049825Y0046824D01*
X0049932Y0046707D01*
X0050036Y0046588D01*
X0050137Y0046466D01*
X0050234Y0046341D01*
X0050329Y0046214D01*
X0050420Y0046085D01*
X0050509Y0045954D01*
X0050593Y0045820D01*
X0050675Y0045684D01*
X0050753Y0045547D01*
X0050827Y0045407D01*
X0050898Y0045265D01*
X0050966Y0045122D01*
X0051030Y0044977D01*
X0051090Y0044831D01*
X0051146Y0044683D01*
X0051199Y0044534D01*
X0051248Y0044383D01*
X0051293Y0044231D01*
X0051334Y0044078D01*
X0051372Y0043925D01*
X0051405Y0043770D01*
X0051435Y0043614D01*
X0051461Y0043458D01*
X0051482Y0043301D01*
X0051500Y0043144D01*
X0051514Y0042986D01*
X0051524Y0042828D01*
X0051530Y0042670D01*
X0051532Y0042512D01*
X0051530Y0042354D01*
X0051524Y0042196D01*
X0051514Y0042038D01*
X0051500Y0041880D01*
X0051482Y0041723D01*
X0051461Y0041566D01*
X0051435Y0041410D01*
X0051405Y0041254D01*
X0051372Y0041099D01*
X0051334Y0040946D01*
X0051293Y0040793D01*
X0051248Y0040641D01*
X0051199Y0040490D01*
X0051146Y0040341D01*
X0051090Y0040193D01*
X0051030Y0040047D01*
X0050966Y0039902D01*
X0050898Y0039759D01*
X0050827Y0039617D01*
X0050753Y0039477D01*
X0050675Y0039340D01*
X0050593Y0039204D01*
X0050509Y0039070D01*
X0050420Y0038939D01*
X0050329Y0038810D01*
X0050234Y0038683D01*
X0050137Y0038558D01*
X0050036Y0038436D01*
X0049932Y0038317D01*
X0049825Y0038200D01*
X0049715Y0038086D01*
X0049602Y0037975D01*
X0049487Y0037866D01*
X0049369Y0037761D01*
X0049248Y0037659D01*
X0049125Y0037559D01*
X0048999Y0037463D01*
X0048871Y0037370D01*
X0048741Y0037280D01*
X0048608Y0037194D01*
X0048473Y0037110D01*
X0048337Y0037031D01*
X0048198Y0036954D01*
X0048057Y0036882D01*
X0047915Y0036812D01*
X0047771Y0036747D01*
X0047625Y0036685D01*
X0047478Y0036627D01*
X0047329Y0036572D01*
X0047179Y0036521D01*
X0047028Y0036474D01*
X0046876Y0036431D01*
X0046723Y0036392D01*
X0046568Y0036356D01*
X0046413Y0036325D01*
X0046257Y0036297D01*
X0046101Y0036273D01*
X0045944Y0036253D01*
X0045786Y0036237D01*
X0045629Y0036225D01*
X0045470Y0036217D01*
X0045312Y0036213D01*
X0045154Y0036213D01*
X0044996Y0036217D01*
X0044837Y0036225D01*
X0044680Y0036237D01*
X0044522Y0036253D01*
X0044365Y0036273D01*
X0044209Y0036297D01*
X0044053Y0036325D01*
X0043898Y0036356D01*
X0043743Y0036392D01*
X0043590Y0036431D01*
X0043438Y0036474D01*
X0043287Y0036521D01*
X0043137Y0036572D01*
X0042988Y0036627D01*
X0042841Y0036685D01*
X0042695Y0036747D01*
X0042551Y0036812D01*
X0042409Y0036882D01*
X0042268Y0036954D01*
X0042129Y0037031D01*
X0041993Y0037110D01*
X0041858Y0037194D01*
X0041725Y0037280D01*
X0041595Y0037370D01*
X0041467Y0037463D01*
X0041341Y0037559D01*
X0041218Y0037659D01*
X0041097Y0037761D01*
X0040979Y0037866D01*
X0040864Y0037975D01*
X0040751Y0038086D01*
X0040641Y0038200D01*
X0040534Y0038317D01*
X0040430Y0038436D01*
X0040329Y0038558D01*
X0040232Y0038683D01*
X0040137Y0038810D01*
X0040046Y0038939D01*
X0039957Y0039070D01*
X0039873Y0039204D01*
X0039791Y0039340D01*
X0039713Y0039477D01*
X0039639Y0039617D01*
X0039568Y0039759D01*
X0039500Y0039902D01*
X0039436Y0040047D01*
X0039376Y0040193D01*
X0039320Y0040341D01*
X0039267Y0040490D01*
X0039218Y0040641D01*
X0039173Y0040793D01*
X0039132Y0040946D01*
X0039094Y0041099D01*
X0039061Y0041254D01*
X0039031Y0041410D01*
X0039005Y0041566D01*
X0038984Y0041723D01*
X0038966Y0041880D01*
X0038952Y0042038D01*
X0038942Y0042196D01*
X0038936Y0042354D01*
X0038934Y0042512D01*
X0038934Y0087512D02*
X0038936Y0087670D01*
X0038942Y0087828D01*
X0038952Y0087986D01*
X0038966Y0088144D01*
X0038984Y0088301D01*
X0039005Y0088458D01*
X0039031Y0088614D01*
X0039061Y0088770D01*
X0039094Y0088925D01*
X0039132Y0089078D01*
X0039173Y0089231D01*
X0039218Y0089383D01*
X0039267Y0089534D01*
X0039320Y0089683D01*
X0039376Y0089831D01*
X0039436Y0089977D01*
X0039500Y0090122D01*
X0039568Y0090265D01*
X0039639Y0090407D01*
X0039713Y0090547D01*
X0039791Y0090684D01*
X0039873Y0090820D01*
X0039957Y0090954D01*
X0040046Y0091085D01*
X0040137Y0091214D01*
X0040232Y0091341D01*
X0040329Y0091466D01*
X0040430Y0091588D01*
X0040534Y0091707D01*
X0040641Y0091824D01*
X0040751Y0091938D01*
X0040864Y0092049D01*
X0040979Y0092158D01*
X0041097Y0092263D01*
X0041218Y0092365D01*
X0041341Y0092465D01*
X0041467Y0092561D01*
X0041595Y0092654D01*
X0041725Y0092744D01*
X0041858Y0092830D01*
X0041993Y0092914D01*
X0042129Y0092993D01*
X0042268Y0093070D01*
X0042409Y0093142D01*
X0042551Y0093212D01*
X0042695Y0093277D01*
X0042841Y0093339D01*
X0042988Y0093397D01*
X0043137Y0093452D01*
X0043287Y0093503D01*
X0043438Y0093550D01*
X0043590Y0093593D01*
X0043743Y0093632D01*
X0043898Y0093668D01*
X0044053Y0093699D01*
X0044209Y0093727D01*
X0044365Y0093751D01*
X0044522Y0093771D01*
X0044680Y0093787D01*
X0044837Y0093799D01*
X0044996Y0093807D01*
X0045154Y0093811D01*
X0045312Y0093811D01*
X0045470Y0093807D01*
X0045629Y0093799D01*
X0045786Y0093787D01*
X0045944Y0093771D01*
X0046101Y0093751D01*
X0046257Y0093727D01*
X0046413Y0093699D01*
X0046568Y0093668D01*
X0046723Y0093632D01*
X0046876Y0093593D01*
X0047028Y0093550D01*
X0047179Y0093503D01*
X0047329Y0093452D01*
X0047478Y0093397D01*
X0047625Y0093339D01*
X0047771Y0093277D01*
X0047915Y0093212D01*
X0048057Y0093142D01*
X0048198Y0093070D01*
X0048337Y0092993D01*
X0048473Y0092914D01*
X0048608Y0092830D01*
X0048741Y0092744D01*
X0048871Y0092654D01*
X0048999Y0092561D01*
X0049125Y0092465D01*
X0049248Y0092365D01*
X0049369Y0092263D01*
X0049487Y0092158D01*
X0049602Y0092049D01*
X0049715Y0091938D01*
X0049825Y0091824D01*
X0049932Y0091707D01*
X0050036Y0091588D01*
X0050137Y0091466D01*
X0050234Y0091341D01*
X0050329Y0091214D01*
X0050420Y0091085D01*
X0050509Y0090954D01*
X0050593Y0090820D01*
X0050675Y0090684D01*
X0050753Y0090547D01*
X0050827Y0090407D01*
X0050898Y0090265D01*
X0050966Y0090122D01*
X0051030Y0089977D01*
X0051090Y0089831D01*
X0051146Y0089683D01*
X0051199Y0089534D01*
X0051248Y0089383D01*
X0051293Y0089231D01*
X0051334Y0089078D01*
X0051372Y0088925D01*
X0051405Y0088770D01*
X0051435Y0088614D01*
X0051461Y0088458D01*
X0051482Y0088301D01*
X0051500Y0088144D01*
X0051514Y0087986D01*
X0051524Y0087828D01*
X0051530Y0087670D01*
X0051532Y0087512D01*
X0051530Y0087354D01*
X0051524Y0087196D01*
X0051514Y0087038D01*
X0051500Y0086880D01*
X0051482Y0086723D01*
X0051461Y0086566D01*
X0051435Y0086410D01*
X0051405Y0086254D01*
X0051372Y0086099D01*
X0051334Y0085946D01*
X0051293Y0085793D01*
X0051248Y0085641D01*
X0051199Y0085490D01*
X0051146Y0085341D01*
X0051090Y0085193D01*
X0051030Y0085047D01*
X0050966Y0084902D01*
X0050898Y0084759D01*
X0050827Y0084617D01*
X0050753Y0084477D01*
X0050675Y0084340D01*
X0050593Y0084204D01*
X0050509Y0084070D01*
X0050420Y0083939D01*
X0050329Y0083810D01*
X0050234Y0083683D01*
X0050137Y0083558D01*
X0050036Y0083436D01*
X0049932Y0083317D01*
X0049825Y0083200D01*
X0049715Y0083086D01*
X0049602Y0082975D01*
X0049487Y0082866D01*
X0049369Y0082761D01*
X0049248Y0082659D01*
X0049125Y0082559D01*
X0048999Y0082463D01*
X0048871Y0082370D01*
X0048741Y0082280D01*
X0048608Y0082194D01*
X0048473Y0082110D01*
X0048337Y0082031D01*
X0048198Y0081954D01*
X0048057Y0081882D01*
X0047915Y0081812D01*
X0047771Y0081747D01*
X0047625Y0081685D01*
X0047478Y0081627D01*
X0047329Y0081572D01*
X0047179Y0081521D01*
X0047028Y0081474D01*
X0046876Y0081431D01*
X0046723Y0081392D01*
X0046568Y0081356D01*
X0046413Y0081325D01*
X0046257Y0081297D01*
X0046101Y0081273D01*
X0045944Y0081253D01*
X0045786Y0081237D01*
X0045629Y0081225D01*
X0045470Y0081217D01*
X0045312Y0081213D01*
X0045154Y0081213D01*
X0044996Y0081217D01*
X0044837Y0081225D01*
X0044680Y0081237D01*
X0044522Y0081253D01*
X0044365Y0081273D01*
X0044209Y0081297D01*
X0044053Y0081325D01*
X0043898Y0081356D01*
X0043743Y0081392D01*
X0043590Y0081431D01*
X0043438Y0081474D01*
X0043287Y0081521D01*
X0043137Y0081572D01*
X0042988Y0081627D01*
X0042841Y0081685D01*
X0042695Y0081747D01*
X0042551Y0081812D01*
X0042409Y0081882D01*
X0042268Y0081954D01*
X0042129Y0082031D01*
X0041993Y0082110D01*
X0041858Y0082194D01*
X0041725Y0082280D01*
X0041595Y0082370D01*
X0041467Y0082463D01*
X0041341Y0082559D01*
X0041218Y0082659D01*
X0041097Y0082761D01*
X0040979Y0082866D01*
X0040864Y0082975D01*
X0040751Y0083086D01*
X0040641Y0083200D01*
X0040534Y0083317D01*
X0040430Y0083436D01*
X0040329Y0083558D01*
X0040232Y0083683D01*
X0040137Y0083810D01*
X0040046Y0083939D01*
X0039957Y0084070D01*
X0039873Y0084204D01*
X0039791Y0084340D01*
X0039713Y0084477D01*
X0039639Y0084617D01*
X0039568Y0084759D01*
X0039500Y0084902D01*
X0039436Y0085047D01*
X0039376Y0085193D01*
X0039320Y0085341D01*
X0039267Y0085490D01*
X0039218Y0085641D01*
X0039173Y0085793D01*
X0039132Y0085946D01*
X0039094Y0086099D01*
X0039061Y0086254D01*
X0039031Y0086410D01*
X0039005Y0086566D01*
X0038984Y0086723D01*
X0038966Y0086880D01*
X0038952Y0087038D01*
X0038942Y0087196D01*
X0038936Y0087354D01*
X0038934Y0087512D01*
X0367890Y0079051D02*
X0367892Y0079159D01*
X0367898Y0079268D01*
X0367908Y0079376D01*
X0367922Y0079483D01*
X0367940Y0079590D01*
X0367961Y0079697D01*
X0367987Y0079802D01*
X0368017Y0079907D01*
X0368050Y0080010D01*
X0368087Y0080112D01*
X0368128Y0080212D01*
X0368172Y0080311D01*
X0368221Y0080409D01*
X0368272Y0080504D01*
X0368327Y0080597D01*
X0368386Y0080689D01*
X0368448Y0080778D01*
X0368513Y0080865D01*
X0368581Y0080949D01*
X0368652Y0081031D01*
X0368726Y0081110D01*
X0368803Y0081186D01*
X0368883Y0081260D01*
X0368966Y0081330D01*
X0369051Y0081398D01*
X0369138Y0081462D01*
X0369228Y0081523D01*
X0369320Y0081581D01*
X0369414Y0081635D01*
X0369510Y0081686D01*
X0369607Y0081733D01*
X0369707Y0081777D01*
X0369808Y0081817D01*
X0369910Y0081853D01*
X0370013Y0081885D01*
X0370118Y0081914D01*
X0370224Y0081938D01*
X0370330Y0081959D01*
X0370437Y0081976D01*
X0370545Y0081989D01*
X0370653Y0081998D01*
X0370762Y0082003D01*
X0370870Y0082004D01*
X0370979Y0082001D01*
X0371087Y0081994D01*
X0371195Y0081983D01*
X0371302Y0081968D01*
X0371409Y0081949D01*
X0371515Y0081926D01*
X0371620Y0081900D01*
X0371725Y0081869D01*
X0371827Y0081835D01*
X0371929Y0081797D01*
X0372029Y0081755D01*
X0372128Y0081710D01*
X0372225Y0081661D01*
X0372319Y0081608D01*
X0372412Y0081552D01*
X0372503Y0081493D01*
X0372592Y0081430D01*
X0372678Y0081365D01*
X0372762Y0081296D01*
X0372843Y0081224D01*
X0372921Y0081149D01*
X0372997Y0081071D01*
X0373070Y0080990D01*
X0373140Y0080907D01*
X0373206Y0080822D01*
X0373270Y0080734D01*
X0373330Y0080643D01*
X0373387Y0080551D01*
X0373440Y0080456D01*
X0373490Y0080360D01*
X0373536Y0080262D01*
X0373579Y0080162D01*
X0373618Y0080061D01*
X0373653Y0079958D01*
X0373685Y0079855D01*
X0373712Y0079750D01*
X0373736Y0079644D01*
X0373756Y0079537D01*
X0373772Y0079430D01*
X0373784Y0079322D01*
X0373792Y0079214D01*
X0373796Y0079105D01*
X0373796Y0078997D01*
X0373792Y0078888D01*
X0373784Y0078780D01*
X0373772Y0078672D01*
X0373756Y0078565D01*
X0373736Y0078458D01*
X0373712Y0078352D01*
X0373685Y0078247D01*
X0373653Y0078144D01*
X0373618Y0078041D01*
X0373579Y0077940D01*
X0373536Y0077840D01*
X0373490Y0077742D01*
X0373440Y0077646D01*
X0373387Y0077551D01*
X0373330Y0077459D01*
X0373270Y0077368D01*
X0373206Y0077280D01*
X0373140Y0077195D01*
X0373070Y0077112D01*
X0372997Y0077031D01*
X0372921Y0076953D01*
X0372843Y0076878D01*
X0372762Y0076806D01*
X0372678Y0076737D01*
X0372592Y0076672D01*
X0372503Y0076609D01*
X0372412Y0076550D01*
X0372320Y0076494D01*
X0372225Y0076441D01*
X0372128Y0076392D01*
X0372029Y0076347D01*
X0371929Y0076305D01*
X0371827Y0076267D01*
X0371725Y0076233D01*
X0371620Y0076202D01*
X0371515Y0076176D01*
X0371409Y0076153D01*
X0371302Y0076134D01*
X0371195Y0076119D01*
X0371087Y0076108D01*
X0370979Y0076101D01*
X0370870Y0076098D01*
X0370762Y0076099D01*
X0370653Y0076104D01*
X0370545Y0076113D01*
X0370437Y0076126D01*
X0370330Y0076143D01*
X0370224Y0076164D01*
X0370118Y0076188D01*
X0370013Y0076217D01*
X0369910Y0076249D01*
X0369808Y0076285D01*
X0369707Y0076325D01*
X0369607Y0076369D01*
X0369510Y0076416D01*
X0369414Y0076467D01*
X0369320Y0076521D01*
X0369228Y0076579D01*
X0369138Y0076640D01*
X0369051Y0076704D01*
X0368966Y0076772D01*
X0368883Y0076842D01*
X0368803Y0076916D01*
X0368726Y0076992D01*
X0368652Y0077071D01*
X0368581Y0077153D01*
X0368513Y0077237D01*
X0368448Y0077324D01*
X0368386Y0077413D01*
X0368327Y0077505D01*
X0368272Y0077598D01*
X0368221Y0077693D01*
X0368172Y0077791D01*
X0368128Y0077890D01*
X0368087Y0077990D01*
X0368050Y0078092D01*
X0368017Y0078195D01*
X0367987Y0078300D01*
X0367961Y0078405D01*
X0367940Y0078512D01*
X0367922Y0078619D01*
X0367908Y0078726D01*
X0367898Y0078834D01*
X0367892Y0078943D01*
X0367890Y0079051D01*
X0379229Y0080232D02*
X0379231Y0080350D01*
X0379237Y0080469D01*
X0379247Y0080587D01*
X0379261Y0080704D01*
X0379278Y0080821D01*
X0379300Y0080938D01*
X0379326Y0081053D01*
X0379355Y0081168D01*
X0379388Y0081282D01*
X0379425Y0081394D01*
X0379466Y0081505D01*
X0379510Y0081615D01*
X0379558Y0081723D01*
X0379610Y0081830D01*
X0379665Y0081935D01*
X0379724Y0082038D01*
X0379786Y0082138D01*
X0379851Y0082237D01*
X0379920Y0082334D01*
X0379991Y0082428D01*
X0380066Y0082519D01*
X0380144Y0082609D01*
X0380225Y0082695D01*
X0380309Y0082779D01*
X0380395Y0082860D01*
X0380485Y0082938D01*
X0380576Y0083013D01*
X0380670Y0083084D01*
X0380767Y0083153D01*
X0380866Y0083218D01*
X0380966Y0083280D01*
X0381069Y0083339D01*
X0381174Y0083394D01*
X0381281Y0083446D01*
X0381389Y0083494D01*
X0381499Y0083538D01*
X0381610Y0083579D01*
X0381722Y0083616D01*
X0381836Y0083649D01*
X0381951Y0083678D01*
X0382066Y0083704D01*
X0382183Y0083726D01*
X0382300Y0083743D01*
X0382417Y0083757D01*
X0382535Y0083767D01*
X0382654Y0083773D01*
X0382772Y0083775D01*
X0382890Y0083773D01*
X0383009Y0083767D01*
X0383127Y0083757D01*
X0383244Y0083743D01*
X0383361Y0083726D01*
X0383478Y0083704D01*
X0383593Y0083678D01*
X0383708Y0083649D01*
X0383822Y0083616D01*
X0383934Y0083579D01*
X0384045Y0083538D01*
X0384155Y0083494D01*
X0384263Y0083446D01*
X0384370Y0083394D01*
X0384475Y0083339D01*
X0384578Y0083280D01*
X0384678Y0083218D01*
X0384777Y0083153D01*
X0384874Y0083084D01*
X0384968Y0083013D01*
X0385059Y0082938D01*
X0385149Y0082860D01*
X0385235Y0082779D01*
X0385319Y0082695D01*
X0385400Y0082609D01*
X0385478Y0082519D01*
X0385553Y0082428D01*
X0385624Y0082334D01*
X0385693Y0082237D01*
X0385758Y0082138D01*
X0385820Y0082038D01*
X0385879Y0081935D01*
X0385934Y0081830D01*
X0385986Y0081723D01*
X0386034Y0081615D01*
X0386078Y0081505D01*
X0386119Y0081394D01*
X0386156Y0081282D01*
X0386189Y0081168D01*
X0386218Y0081053D01*
X0386244Y0080938D01*
X0386266Y0080821D01*
X0386283Y0080704D01*
X0386297Y0080587D01*
X0386307Y0080469D01*
X0386313Y0080350D01*
X0386315Y0080232D01*
X0386313Y0080114D01*
X0386307Y0079995D01*
X0386297Y0079877D01*
X0386283Y0079760D01*
X0386266Y0079643D01*
X0386244Y0079526D01*
X0386218Y0079411D01*
X0386189Y0079296D01*
X0386156Y0079182D01*
X0386119Y0079070D01*
X0386078Y0078959D01*
X0386034Y0078849D01*
X0385986Y0078741D01*
X0385934Y0078634D01*
X0385879Y0078529D01*
X0385820Y0078426D01*
X0385758Y0078326D01*
X0385693Y0078227D01*
X0385624Y0078130D01*
X0385553Y0078036D01*
X0385478Y0077945D01*
X0385400Y0077855D01*
X0385319Y0077769D01*
X0385235Y0077685D01*
X0385149Y0077604D01*
X0385059Y0077526D01*
X0384968Y0077451D01*
X0384874Y0077380D01*
X0384777Y0077311D01*
X0384678Y0077246D01*
X0384578Y0077184D01*
X0384475Y0077125D01*
X0384370Y0077070D01*
X0384263Y0077018D01*
X0384155Y0076970D01*
X0384045Y0076926D01*
X0383934Y0076885D01*
X0383822Y0076848D01*
X0383708Y0076815D01*
X0383593Y0076786D01*
X0383478Y0076760D01*
X0383361Y0076738D01*
X0383244Y0076721D01*
X0383127Y0076707D01*
X0383009Y0076697D01*
X0382890Y0076691D01*
X0382772Y0076689D01*
X0382654Y0076691D01*
X0382535Y0076697D01*
X0382417Y0076707D01*
X0382300Y0076721D01*
X0382183Y0076738D01*
X0382066Y0076760D01*
X0381951Y0076786D01*
X0381836Y0076815D01*
X0381722Y0076848D01*
X0381610Y0076885D01*
X0381499Y0076926D01*
X0381389Y0076970D01*
X0381281Y0077018D01*
X0381174Y0077070D01*
X0381069Y0077125D01*
X0380966Y0077184D01*
X0380866Y0077246D01*
X0380767Y0077311D01*
X0380670Y0077380D01*
X0380576Y0077451D01*
X0380485Y0077526D01*
X0380395Y0077604D01*
X0380309Y0077685D01*
X0380225Y0077769D01*
X0380144Y0077855D01*
X0380066Y0077945D01*
X0379991Y0078036D01*
X0379920Y0078130D01*
X0379851Y0078227D01*
X0379786Y0078326D01*
X0379724Y0078426D01*
X0379665Y0078529D01*
X0379610Y0078634D01*
X0379558Y0078741D01*
X0379510Y0078849D01*
X0379466Y0078959D01*
X0379425Y0079070D01*
X0379388Y0079182D01*
X0379355Y0079296D01*
X0379326Y0079411D01*
X0379300Y0079526D01*
X0379278Y0079643D01*
X0379261Y0079760D01*
X0379247Y0079877D01*
X0379237Y0079995D01*
X0379231Y0080114D01*
X0379229Y0080232D01*
X0367890Y0059957D02*
X0367892Y0060065D01*
X0367898Y0060174D01*
X0367908Y0060282D01*
X0367922Y0060389D01*
X0367940Y0060496D01*
X0367961Y0060603D01*
X0367987Y0060708D01*
X0368017Y0060813D01*
X0368050Y0060916D01*
X0368087Y0061018D01*
X0368128Y0061118D01*
X0368172Y0061217D01*
X0368221Y0061315D01*
X0368272Y0061410D01*
X0368327Y0061503D01*
X0368386Y0061595D01*
X0368448Y0061684D01*
X0368513Y0061771D01*
X0368581Y0061855D01*
X0368652Y0061937D01*
X0368726Y0062016D01*
X0368803Y0062092D01*
X0368883Y0062166D01*
X0368966Y0062236D01*
X0369051Y0062304D01*
X0369138Y0062368D01*
X0369228Y0062429D01*
X0369320Y0062487D01*
X0369414Y0062541D01*
X0369510Y0062592D01*
X0369607Y0062639D01*
X0369707Y0062683D01*
X0369808Y0062723D01*
X0369910Y0062759D01*
X0370013Y0062791D01*
X0370118Y0062820D01*
X0370224Y0062844D01*
X0370330Y0062865D01*
X0370437Y0062882D01*
X0370545Y0062895D01*
X0370653Y0062904D01*
X0370762Y0062909D01*
X0370870Y0062910D01*
X0370979Y0062907D01*
X0371087Y0062900D01*
X0371195Y0062889D01*
X0371302Y0062874D01*
X0371409Y0062855D01*
X0371515Y0062832D01*
X0371620Y0062806D01*
X0371725Y0062775D01*
X0371827Y0062741D01*
X0371929Y0062703D01*
X0372029Y0062661D01*
X0372128Y0062616D01*
X0372225Y0062567D01*
X0372319Y0062514D01*
X0372412Y0062458D01*
X0372503Y0062399D01*
X0372592Y0062336D01*
X0372678Y0062271D01*
X0372762Y0062202D01*
X0372843Y0062130D01*
X0372921Y0062055D01*
X0372997Y0061977D01*
X0373070Y0061896D01*
X0373140Y0061813D01*
X0373206Y0061728D01*
X0373270Y0061640D01*
X0373330Y0061549D01*
X0373387Y0061457D01*
X0373440Y0061362D01*
X0373490Y0061266D01*
X0373536Y0061168D01*
X0373579Y0061068D01*
X0373618Y0060967D01*
X0373653Y0060864D01*
X0373685Y0060761D01*
X0373712Y0060656D01*
X0373736Y0060550D01*
X0373756Y0060443D01*
X0373772Y0060336D01*
X0373784Y0060228D01*
X0373792Y0060120D01*
X0373796Y0060011D01*
X0373796Y0059903D01*
X0373792Y0059794D01*
X0373784Y0059686D01*
X0373772Y0059578D01*
X0373756Y0059471D01*
X0373736Y0059364D01*
X0373712Y0059258D01*
X0373685Y0059153D01*
X0373653Y0059050D01*
X0373618Y0058947D01*
X0373579Y0058846D01*
X0373536Y0058746D01*
X0373490Y0058648D01*
X0373440Y0058552D01*
X0373387Y0058457D01*
X0373330Y0058365D01*
X0373270Y0058274D01*
X0373206Y0058186D01*
X0373140Y0058101D01*
X0373070Y0058018D01*
X0372997Y0057937D01*
X0372921Y0057859D01*
X0372843Y0057784D01*
X0372762Y0057712D01*
X0372678Y0057643D01*
X0372592Y0057578D01*
X0372503Y0057515D01*
X0372412Y0057456D01*
X0372320Y0057400D01*
X0372225Y0057347D01*
X0372128Y0057298D01*
X0372029Y0057253D01*
X0371929Y0057211D01*
X0371827Y0057173D01*
X0371725Y0057139D01*
X0371620Y0057108D01*
X0371515Y0057082D01*
X0371409Y0057059D01*
X0371302Y0057040D01*
X0371195Y0057025D01*
X0371087Y0057014D01*
X0370979Y0057007D01*
X0370870Y0057004D01*
X0370762Y0057005D01*
X0370653Y0057010D01*
X0370545Y0057019D01*
X0370437Y0057032D01*
X0370330Y0057049D01*
X0370224Y0057070D01*
X0370118Y0057094D01*
X0370013Y0057123D01*
X0369910Y0057155D01*
X0369808Y0057191D01*
X0369707Y0057231D01*
X0369607Y0057275D01*
X0369510Y0057322D01*
X0369414Y0057373D01*
X0369320Y0057427D01*
X0369228Y0057485D01*
X0369138Y0057546D01*
X0369051Y0057610D01*
X0368966Y0057678D01*
X0368883Y0057748D01*
X0368803Y0057822D01*
X0368726Y0057898D01*
X0368652Y0057977D01*
X0368581Y0058059D01*
X0368513Y0058143D01*
X0368448Y0058230D01*
X0368386Y0058319D01*
X0368327Y0058411D01*
X0368272Y0058504D01*
X0368221Y0058599D01*
X0368172Y0058697D01*
X0368128Y0058796D01*
X0368087Y0058896D01*
X0368050Y0058998D01*
X0368017Y0059101D01*
X0367987Y0059206D01*
X0367961Y0059311D01*
X0367940Y0059418D01*
X0367922Y0059525D01*
X0367908Y0059632D01*
X0367898Y0059740D01*
X0367892Y0059849D01*
X0367890Y0059957D01*
X0379229Y0058776D02*
X0379231Y0058894D01*
X0379237Y0059013D01*
X0379247Y0059131D01*
X0379261Y0059248D01*
X0379278Y0059365D01*
X0379300Y0059482D01*
X0379326Y0059597D01*
X0379355Y0059712D01*
X0379388Y0059826D01*
X0379425Y0059938D01*
X0379466Y0060049D01*
X0379510Y0060159D01*
X0379558Y0060267D01*
X0379610Y0060374D01*
X0379665Y0060479D01*
X0379724Y0060582D01*
X0379786Y0060682D01*
X0379851Y0060781D01*
X0379920Y0060878D01*
X0379991Y0060972D01*
X0380066Y0061063D01*
X0380144Y0061153D01*
X0380225Y0061239D01*
X0380309Y0061323D01*
X0380395Y0061404D01*
X0380485Y0061482D01*
X0380576Y0061557D01*
X0380670Y0061628D01*
X0380767Y0061697D01*
X0380866Y0061762D01*
X0380966Y0061824D01*
X0381069Y0061883D01*
X0381174Y0061938D01*
X0381281Y0061990D01*
X0381389Y0062038D01*
X0381499Y0062082D01*
X0381610Y0062123D01*
X0381722Y0062160D01*
X0381836Y0062193D01*
X0381951Y0062222D01*
X0382066Y0062248D01*
X0382183Y0062270D01*
X0382300Y0062287D01*
X0382417Y0062301D01*
X0382535Y0062311D01*
X0382654Y0062317D01*
X0382772Y0062319D01*
X0382890Y0062317D01*
X0383009Y0062311D01*
X0383127Y0062301D01*
X0383244Y0062287D01*
X0383361Y0062270D01*
X0383478Y0062248D01*
X0383593Y0062222D01*
X0383708Y0062193D01*
X0383822Y0062160D01*
X0383934Y0062123D01*
X0384045Y0062082D01*
X0384155Y0062038D01*
X0384263Y0061990D01*
X0384370Y0061938D01*
X0384475Y0061883D01*
X0384578Y0061824D01*
X0384678Y0061762D01*
X0384777Y0061697D01*
X0384874Y0061628D01*
X0384968Y0061557D01*
X0385059Y0061482D01*
X0385149Y0061404D01*
X0385235Y0061323D01*
X0385319Y0061239D01*
X0385400Y0061153D01*
X0385478Y0061063D01*
X0385553Y0060972D01*
X0385624Y0060878D01*
X0385693Y0060781D01*
X0385758Y0060682D01*
X0385820Y0060582D01*
X0385879Y0060479D01*
X0385934Y0060374D01*
X0385986Y0060267D01*
X0386034Y0060159D01*
X0386078Y0060049D01*
X0386119Y0059938D01*
X0386156Y0059826D01*
X0386189Y0059712D01*
X0386218Y0059597D01*
X0386244Y0059482D01*
X0386266Y0059365D01*
X0386283Y0059248D01*
X0386297Y0059131D01*
X0386307Y0059013D01*
X0386313Y0058894D01*
X0386315Y0058776D01*
X0386313Y0058658D01*
X0386307Y0058539D01*
X0386297Y0058421D01*
X0386283Y0058304D01*
X0386266Y0058187D01*
X0386244Y0058070D01*
X0386218Y0057955D01*
X0386189Y0057840D01*
X0386156Y0057726D01*
X0386119Y0057614D01*
X0386078Y0057503D01*
X0386034Y0057393D01*
X0385986Y0057285D01*
X0385934Y0057178D01*
X0385879Y0057073D01*
X0385820Y0056970D01*
X0385758Y0056870D01*
X0385693Y0056771D01*
X0385624Y0056674D01*
X0385553Y0056580D01*
X0385478Y0056489D01*
X0385400Y0056399D01*
X0385319Y0056313D01*
X0385235Y0056229D01*
X0385149Y0056148D01*
X0385059Y0056070D01*
X0384968Y0055995D01*
X0384874Y0055924D01*
X0384777Y0055855D01*
X0384678Y0055790D01*
X0384578Y0055728D01*
X0384475Y0055669D01*
X0384370Y0055614D01*
X0384263Y0055562D01*
X0384155Y0055514D01*
X0384045Y0055470D01*
X0383934Y0055429D01*
X0383822Y0055392D01*
X0383708Y0055359D01*
X0383593Y0055330D01*
X0383478Y0055304D01*
X0383361Y0055282D01*
X0383244Y0055265D01*
X0383127Y0055251D01*
X0383009Y0055241D01*
X0382890Y0055235D01*
X0382772Y0055233D01*
X0382654Y0055235D01*
X0382535Y0055241D01*
X0382417Y0055251D01*
X0382300Y0055265D01*
X0382183Y0055282D01*
X0382066Y0055304D01*
X0381951Y0055330D01*
X0381836Y0055359D01*
X0381722Y0055392D01*
X0381610Y0055429D01*
X0381499Y0055470D01*
X0381389Y0055514D01*
X0381281Y0055562D01*
X0381174Y0055614D01*
X0381069Y0055669D01*
X0380966Y0055728D01*
X0380866Y0055790D01*
X0380767Y0055855D01*
X0380670Y0055924D01*
X0380576Y0055995D01*
X0380485Y0056070D01*
X0380395Y0056148D01*
X0380309Y0056229D01*
X0380225Y0056313D01*
X0380144Y0056399D01*
X0380066Y0056489D01*
X0379991Y0056580D01*
X0379920Y0056674D01*
X0379851Y0056771D01*
X0379786Y0056870D01*
X0379724Y0056970D01*
X0379665Y0057073D01*
X0379610Y0057178D01*
X0379558Y0057285D01*
X0379510Y0057393D01*
X0379466Y0057503D01*
X0379425Y0057614D01*
X0379388Y0057726D01*
X0379355Y0057840D01*
X0379326Y0057955D01*
X0379300Y0058070D01*
X0379278Y0058187D01*
X0379261Y0058304D01*
X0379247Y0058421D01*
X0379237Y0058539D01*
X0379231Y0058658D01*
X0379229Y0058776D01*
D11*
X0303165Y0025094D03*
X0293323Y0025094D03*
X0293323Y0017220D03*
X0303165Y0017220D03*
M02*
