%
M48
M72
T01C0.0197
T02C0.0236
T03C0.0354
T04C0.0360
T05C0.0394
T06C0.0630
T07C0.1260
%
T01
X10730Y7736
X11714Y7736
X13486Y7736
X13978Y7736
X14470Y7736
X16635Y7736
X14716Y5620
X13141Y5620
X13141Y4783
X14716Y4783
X14716Y3946
X13141Y3946
X13683Y3159
X14716Y3159
X11714Y2027
X10681Y2027
X8171Y3257
X8171Y5275
X20376Y3307
T02
X7285Y7854
X24411Y5059
T03
X6493Y7452
X7293Y7052
X6493Y6652
X7293Y6252
X6493Y5852
X7293Y5452
X6493Y5052
X7293Y7852
X24403Y7461
X25203Y7861
X25203Y7061
X24403Y6661
X25203Y6261
X24403Y5861
X25203Y5461
X24403Y5061
T04
X15348Y3159
X16348Y3159
T05
X5513Y12067
X8072Y12067
X8072Y10295
X5513Y10295
T06
X3143Y9522
X3143Y3382
X28553Y3391
X28553Y9531
T07
X4523Y8702
X4523Y4202
X27173Y4211
X27173Y8711
M30
