G75*
%MOIN*%
%OFA0B0*%
%FSLAX25Y25*%
%IPPOS*%
%LPD*%
%AMOC8*
5,1,8,0,0,1.08239X$1,22.5*
%
%ADD10C,0.00000*%
%ADD11R,0.01181X0.03937*%
%ADD12R,0.15748X0.25098*%
%ADD13R,0.17224X0.26083*%
%ADD14C,0.06600*%
%ADD15R,0.05118X0.06299*%
%ADD16R,0.06299X0.05118*%
%ADD17R,0.05906X0.07874*%
%ADD18C,0.05600*%
%ADD19R,0.03543X0.02362*%
%ADD20C,0.05315*%
%ADD21R,0.03962X0.03962*%
%ADD22C,0.01000*%
%ADD23C,0.05000*%
%ADD24OC8,0.03569*%
%ADD25C,0.15000*%
%ADD26C,0.02400*%
D10*
X0001000Y0001571D02*
X0001000Y0127555D01*
X0087614Y0127555D01*
X0087614Y0119681D01*
X0087616Y0119557D01*
X0087622Y0119434D01*
X0087631Y0119310D01*
X0087645Y0119188D01*
X0087662Y0119065D01*
X0087684Y0118943D01*
X0087709Y0118822D01*
X0087738Y0118702D01*
X0087770Y0118583D01*
X0087807Y0118464D01*
X0087847Y0118347D01*
X0087890Y0118232D01*
X0087938Y0118117D01*
X0087989Y0118005D01*
X0088043Y0117894D01*
X0088101Y0117784D01*
X0088162Y0117677D01*
X0088227Y0117571D01*
X0088295Y0117468D01*
X0088366Y0117367D01*
X0088440Y0117268D01*
X0088517Y0117171D01*
X0088598Y0117077D01*
X0088681Y0116986D01*
X0088767Y0116897D01*
X0088856Y0116811D01*
X0088947Y0116728D01*
X0089041Y0116647D01*
X0089138Y0116570D01*
X0089237Y0116496D01*
X0089338Y0116425D01*
X0089441Y0116357D01*
X0089547Y0116292D01*
X0089654Y0116231D01*
X0089764Y0116173D01*
X0089875Y0116119D01*
X0089987Y0116068D01*
X0090102Y0116020D01*
X0090217Y0115977D01*
X0090334Y0115937D01*
X0090453Y0115900D01*
X0090572Y0115868D01*
X0090692Y0115839D01*
X0090813Y0115814D01*
X0090935Y0115792D01*
X0091058Y0115775D01*
X0091180Y0115761D01*
X0091304Y0115752D01*
X0091427Y0115746D01*
X0091551Y0115744D01*
X0184071Y0115744D01*
X0184195Y0115746D01*
X0184318Y0115752D01*
X0184442Y0115761D01*
X0184564Y0115775D01*
X0184687Y0115792D01*
X0184809Y0115814D01*
X0184930Y0115839D01*
X0185050Y0115868D01*
X0185169Y0115900D01*
X0185288Y0115937D01*
X0185405Y0115977D01*
X0185520Y0116020D01*
X0185635Y0116068D01*
X0185747Y0116119D01*
X0185858Y0116173D01*
X0185968Y0116231D01*
X0186075Y0116292D01*
X0186181Y0116357D01*
X0186284Y0116425D01*
X0186385Y0116496D01*
X0186484Y0116570D01*
X0186581Y0116647D01*
X0186675Y0116728D01*
X0186766Y0116811D01*
X0186855Y0116897D01*
X0186941Y0116986D01*
X0187024Y0117077D01*
X0187105Y0117171D01*
X0187182Y0117268D01*
X0187256Y0117367D01*
X0187327Y0117468D01*
X0187395Y0117571D01*
X0187460Y0117677D01*
X0187521Y0117784D01*
X0187579Y0117894D01*
X0187633Y0118005D01*
X0187684Y0118117D01*
X0187732Y0118232D01*
X0187775Y0118347D01*
X0187815Y0118464D01*
X0187852Y0118583D01*
X0187884Y0118702D01*
X0187913Y0118822D01*
X0187938Y0118943D01*
X0187960Y0119065D01*
X0187977Y0119188D01*
X0187991Y0119310D01*
X0188000Y0119434D01*
X0188006Y0119557D01*
X0188008Y0119681D01*
X0188008Y0127555D01*
X0315961Y0127555D01*
X0315961Y0001571D01*
X0001000Y0001571D01*
X0038934Y0042020D02*
X0038936Y0042178D01*
X0038942Y0042336D01*
X0038952Y0042494D01*
X0038966Y0042652D01*
X0038984Y0042809D01*
X0039005Y0042966D01*
X0039031Y0043122D01*
X0039061Y0043278D01*
X0039094Y0043433D01*
X0039132Y0043586D01*
X0039173Y0043739D01*
X0039218Y0043891D01*
X0039267Y0044042D01*
X0039320Y0044191D01*
X0039376Y0044339D01*
X0039436Y0044485D01*
X0039500Y0044630D01*
X0039568Y0044773D01*
X0039639Y0044915D01*
X0039713Y0045055D01*
X0039791Y0045192D01*
X0039873Y0045328D01*
X0039957Y0045462D01*
X0040046Y0045593D01*
X0040137Y0045722D01*
X0040232Y0045849D01*
X0040329Y0045974D01*
X0040430Y0046096D01*
X0040534Y0046215D01*
X0040641Y0046332D01*
X0040751Y0046446D01*
X0040864Y0046557D01*
X0040979Y0046666D01*
X0041097Y0046771D01*
X0041218Y0046873D01*
X0041341Y0046973D01*
X0041467Y0047069D01*
X0041595Y0047162D01*
X0041725Y0047252D01*
X0041858Y0047338D01*
X0041993Y0047422D01*
X0042129Y0047501D01*
X0042268Y0047578D01*
X0042409Y0047650D01*
X0042551Y0047720D01*
X0042695Y0047785D01*
X0042841Y0047847D01*
X0042988Y0047905D01*
X0043137Y0047960D01*
X0043287Y0048011D01*
X0043438Y0048058D01*
X0043590Y0048101D01*
X0043743Y0048140D01*
X0043898Y0048176D01*
X0044053Y0048207D01*
X0044209Y0048235D01*
X0044365Y0048259D01*
X0044522Y0048279D01*
X0044680Y0048295D01*
X0044837Y0048307D01*
X0044996Y0048315D01*
X0045154Y0048319D01*
X0045312Y0048319D01*
X0045470Y0048315D01*
X0045629Y0048307D01*
X0045786Y0048295D01*
X0045944Y0048279D01*
X0046101Y0048259D01*
X0046257Y0048235D01*
X0046413Y0048207D01*
X0046568Y0048176D01*
X0046723Y0048140D01*
X0046876Y0048101D01*
X0047028Y0048058D01*
X0047179Y0048011D01*
X0047329Y0047960D01*
X0047478Y0047905D01*
X0047625Y0047847D01*
X0047771Y0047785D01*
X0047915Y0047720D01*
X0048057Y0047650D01*
X0048198Y0047578D01*
X0048337Y0047501D01*
X0048473Y0047422D01*
X0048608Y0047338D01*
X0048741Y0047252D01*
X0048871Y0047162D01*
X0048999Y0047069D01*
X0049125Y0046973D01*
X0049248Y0046873D01*
X0049369Y0046771D01*
X0049487Y0046666D01*
X0049602Y0046557D01*
X0049715Y0046446D01*
X0049825Y0046332D01*
X0049932Y0046215D01*
X0050036Y0046096D01*
X0050137Y0045974D01*
X0050234Y0045849D01*
X0050329Y0045722D01*
X0050420Y0045593D01*
X0050509Y0045462D01*
X0050593Y0045328D01*
X0050675Y0045192D01*
X0050753Y0045055D01*
X0050827Y0044915D01*
X0050898Y0044773D01*
X0050966Y0044630D01*
X0051030Y0044485D01*
X0051090Y0044339D01*
X0051146Y0044191D01*
X0051199Y0044042D01*
X0051248Y0043891D01*
X0051293Y0043739D01*
X0051334Y0043586D01*
X0051372Y0043433D01*
X0051405Y0043278D01*
X0051435Y0043122D01*
X0051461Y0042966D01*
X0051482Y0042809D01*
X0051500Y0042652D01*
X0051514Y0042494D01*
X0051524Y0042336D01*
X0051530Y0042178D01*
X0051532Y0042020D01*
X0051530Y0041862D01*
X0051524Y0041704D01*
X0051514Y0041546D01*
X0051500Y0041388D01*
X0051482Y0041231D01*
X0051461Y0041074D01*
X0051435Y0040918D01*
X0051405Y0040762D01*
X0051372Y0040607D01*
X0051334Y0040454D01*
X0051293Y0040301D01*
X0051248Y0040149D01*
X0051199Y0039998D01*
X0051146Y0039849D01*
X0051090Y0039701D01*
X0051030Y0039555D01*
X0050966Y0039410D01*
X0050898Y0039267D01*
X0050827Y0039125D01*
X0050753Y0038985D01*
X0050675Y0038848D01*
X0050593Y0038712D01*
X0050509Y0038578D01*
X0050420Y0038447D01*
X0050329Y0038318D01*
X0050234Y0038191D01*
X0050137Y0038066D01*
X0050036Y0037944D01*
X0049932Y0037825D01*
X0049825Y0037708D01*
X0049715Y0037594D01*
X0049602Y0037483D01*
X0049487Y0037374D01*
X0049369Y0037269D01*
X0049248Y0037167D01*
X0049125Y0037067D01*
X0048999Y0036971D01*
X0048871Y0036878D01*
X0048741Y0036788D01*
X0048608Y0036702D01*
X0048473Y0036618D01*
X0048337Y0036539D01*
X0048198Y0036462D01*
X0048057Y0036390D01*
X0047915Y0036320D01*
X0047771Y0036255D01*
X0047625Y0036193D01*
X0047478Y0036135D01*
X0047329Y0036080D01*
X0047179Y0036029D01*
X0047028Y0035982D01*
X0046876Y0035939D01*
X0046723Y0035900D01*
X0046568Y0035864D01*
X0046413Y0035833D01*
X0046257Y0035805D01*
X0046101Y0035781D01*
X0045944Y0035761D01*
X0045786Y0035745D01*
X0045629Y0035733D01*
X0045470Y0035725D01*
X0045312Y0035721D01*
X0045154Y0035721D01*
X0044996Y0035725D01*
X0044837Y0035733D01*
X0044680Y0035745D01*
X0044522Y0035761D01*
X0044365Y0035781D01*
X0044209Y0035805D01*
X0044053Y0035833D01*
X0043898Y0035864D01*
X0043743Y0035900D01*
X0043590Y0035939D01*
X0043438Y0035982D01*
X0043287Y0036029D01*
X0043137Y0036080D01*
X0042988Y0036135D01*
X0042841Y0036193D01*
X0042695Y0036255D01*
X0042551Y0036320D01*
X0042409Y0036390D01*
X0042268Y0036462D01*
X0042129Y0036539D01*
X0041993Y0036618D01*
X0041858Y0036702D01*
X0041725Y0036788D01*
X0041595Y0036878D01*
X0041467Y0036971D01*
X0041341Y0037067D01*
X0041218Y0037167D01*
X0041097Y0037269D01*
X0040979Y0037374D01*
X0040864Y0037483D01*
X0040751Y0037594D01*
X0040641Y0037708D01*
X0040534Y0037825D01*
X0040430Y0037944D01*
X0040329Y0038066D01*
X0040232Y0038191D01*
X0040137Y0038318D01*
X0040046Y0038447D01*
X0039957Y0038578D01*
X0039873Y0038712D01*
X0039791Y0038848D01*
X0039713Y0038985D01*
X0039639Y0039125D01*
X0039568Y0039267D01*
X0039500Y0039410D01*
X0039436Y0039555D01*
X0039376Y0039701D01*
X0039320Y0039849D01*
X0039267Y0039998D01*
X0039218Y0040149D01*
X0039173Y0040301D01*
X0039132Y0040454D01*
X0039094Y0040607D01*
X0039061Y0040762D01*
X0039031Y0040918D01*
X0039005Y0041074D01*
X0038984Y0041231D01*
X0038966Y0041388D01*
X0038952Y0041546D01*
X0038942Y0041704D01*
X0038936Y0041862D01*
X0038934Y0042020D01*
X0038934Y0087020D02*
X0038936Y0087178D01*
X0038942Y0087336D01*
X0038952Y0087494D01*
X0038966Y0087652D01*
X0038984Y0087809D01*
X0039005Y0087966D01*
X0039031Y0088122D01*
X0039061Y0088278D01*
X0039094Y0088433D01*
X0039132Y0088586D01*
X0039173Y0088739D01*
X0039218Y0088891D01*
X0039267Y0089042D01*
X0039320Y0089191D01*
X0039376Y0089339D01*
X0039436Y0089485D01*
X0039500Y0089630D01*
X0039568Y0089773D01*
X0039639Y0089915D01*
X0039713Y0090055D01*
X0039791Y0090192D01*
X0039873Y0090328D01*
X0039957Y0090462D01*
X0040046Y0090593D01*
X0040137Y0090722D01*
X0040232Y0090849D01*
X0040329Y0090974D01*
X0040430Y0091096D01*
X0040534Y0091215D01*
X0040641Y0091332D01*
X0040751Y0091446D01*
X0040864Y0091557D01*
X0040979Y0091666D01*
X0041097Y0091771D01*
X0041218Y0091873D01*
X0041341Y0091973D01*
X0041467Y0092069D01*
X0041595Y0092162D01*
X0041725Y0092252D01*
X0041858Y0092338D01*
X0041993Y0092422D01*
X0042129Y0092501D01*
X0042268Y0092578D01*
X0042409Y0092650D01*
X0042551Y0092720D01*
X0042695Y0092785D01*
X0042841Y0092847D01*
X0042988Y0092905D01*
X0043137Y0092960D01*
X0043287Y0093011D01*
X0043438Y0093058D01*
X0043590Y0093101D01*
X0043743Y0093140D01*
X0043898Y0093176D01*
X0044053Y0093207D01*
X0044209Y0093235D01*
X0044365Y0093259D01*
X0044522Y0093279D01*
X0044680Y0093295D01*
X0044837Y0093307D01*
X0044996Y0093315D01*
X0045154Y0093319D01*
X0045312Y0093319D01*
X0045470Y0093315D01*
X0045629Y0093307D01*
X0045786Y0093295D01*
X0045944Y0093279D01*
X0046101Y0093259D01*
X0046257Y0093235D01*
X0046413Y0093207D01*
X0046568Y0093176D01*
X0046723Y0093140D01*
X0046876Y0093101D01*
X0047028Y0093058D01*
X0047179Y0093011D01*
X0047329Y0092960D01*
X0047478Y0092905D01*
X0047625Y0092847D01*
X0047771Y0092785D01*
X0047915Y0092720D01*
X0048057Y0092650D01*
X0048198Y0092578D01*
X0048337Y0092501D01*
X0048473Y0092422D01*
X0048608Y0092338D01*
X0048741Y0092252D01*
X0048871Y0092162D01*
X0048999Y0092069D01*
X0049125Y0091973D01*
X0049248Y0091873D01*
X0049369Y0091771D01*
X0049487Y0091666D01*
X0049602Y0091557D01*
X0049715Y0091446D01*
X0049825Y0091332D01*
X0049932Y0091215D01*
X0050036Y0091096D01*
X0050137Y0090974D01*
X0050234Y0090849D01*
X0050329Y0090722D01*
X0050420Y0090593D01*
X0050509Y0090462D01*
X0050593Y0090328D01*
X0050675Y0090192D01*
X0050753Y0090055D01*
X0050827Y0089915D01*
X0050898Y0089773D01*
X0050966Y0089630D01*
X0051030Y0089485D01*
X0051090Y0089339D01*
X0051146Y0089191D01*
X0051199Y0089042D01*
X0051248Y0088891D01*
X0051293Y0088739D01*
X0051334Y0088586D01*
X0051372Y0088433D01*
X0051405Y0088278D01*
X0051435Y0088122D01*
X0051461Y0087966D01*
X0051482Y0087809D01*
X0051500Y0087652D01*
X0051514Y0087494D01*
X0051524Y0087336D01*
X0051530Y0087178D01*
X0051532Y0087020D01*
X0051530Y0086862D01*
X0051524Y0086704D01*
X0051514Y0086546D01*
X0051500Y0086388D01*
X0051482Y0086231D01*
X0051461Y0086074D01*
X0051435Y0085918D01*
X0051405Y0085762D01*
X0051372Y0085607D01*
X0051334Y0085454D01*
X0051293Y0085301D01*
X0051248Y0085149D01*
X0051199Y0084998D01*
X0051146Y0084849D01*
X0051090Y0084701D01*
X0051030Y0084555D01*
X0050966Y0084410D01*
X0050898Y0084267D01*
X0050827Y0084125D01*
X0050753Y0083985D01*
X0050675Y0083848D01*
X0050593Y0083712D01*
X0050509Y0083578D01*
X0050420Y0083447D01*
X0050329Y0083318D01*
X0050234Y0083191D01*
X0050137Y0083066D01*
X0050036Y0082944D01*
X0049932Y0082825D01*
X0049825Y0082708D01*
X0049715Y0082594D01*
X0049602Y0082483D01*
X0049487Y0082374D01*
X0049369Y0082269D01*
X0049248Y0082167D01*
X0049125Y0082067D01*
X0048999Y0081971D01*
X0048871Y0081878D01*
X0048741Y0081788D01*
X0048608Y0081702D01*
X0048473Y0081618D01*
X0048337Y0081539D01*
X0048198Y0081462D01*
X0048057Y0081390D01*
X0047915Y0081320D01*
X0047771Y0081255D01*
X0047625Y0081193D01*
X0047478Y0081135D01*
X0047329Y0081080D01*
X0047179Y0081029D01*
X0047028Y0080982D01*
X0046876Y0080939D01*
X0046723Y0080900D01*
X0046568Y0080864D01*
X0046413Y0080833D01*
X0046257Y0080805D01*
X0046101Y0080781D01*
X0045944Y0080761D01*
X0045786Y0080745D01*
X0045629Y0080733D01*
X0045470Y0080725D01*
X0045312Y0080721D01*
X0045154Y0080721D01*
X0044996Y0080725D01*
X0044837Y0080733D01*
X0044680Y0080745D01*
X0044522Y0080761D01*
X0044365Y0080781D01*
X0044209Y0080805D01*
X0044053Y0080833D01*
X0043898Y0080864D01*
X0043743Y0080900D01*
X0043590Y0080939D01*
X0043438Y0080982D01*
X0043287Y0081029D01*
X0043137Y0081080D01*
X0042988Y0081135D01*
X0042841Y0081193D01*
X0042695Y0081255D01*
X0042551Y0081320D01*
X0042409Y0081390D01*
X0042268Y0081462D01*
X0042129Y0081539D01*
X0041993Y0081618D01*
X0041858Y0081702D01*
X0041725Y0081788D01*
X0041595Y0081878D01*
X0041467Y0081971D01*
X0041341Y0082067D01*
X0041218Y0082167D01*
X0041097Y0082269D01*
X0040979Y0082374D01*
X0040864Y0082483D01*
X0040751Y0082594D01*
X0040641Y0082708D01*
X0040534Y0082825D01*
X0040430Y0082944D01*
X0040329Y0083066D01*
X0040232Y0083191D01*
X0040137Y0083318D01*
X0040046Y0083447D01*
X0039957Y0083578D01*
X0039873Y0083712D01*
X0039791Y0083848D01*
X0039713Y0083985D01*
X0039639Y0084125D01*
X0039568Y0084267D01*
X0039500Y0084410D01*
X0039436Y0084555D01*
X0039376Y0084701D01*
X0039320Y0084849D01*
X0039267Y0084998D01*
X0039218Y0085149D01*
X0039173Y0085301D01*
X0039132Y0085454D01*
X0039094Y0085607D01*
X0039061Y0085762D01*
X0039031Y0085918D01*
X0039005Y0086074D01*
X0038984Y0086231D01*
X0038966Y0086388D01*
X0038952Y0086546D01*
X0038942Y0086704D01*
X0038936Y0086862D01*
X0038934Y0087020D01*
X0265429Y0087106D02*
X0265431Y0087264D01*
X0265437Y0087422D01*
X0265447Y0087580D01*
X0265461Y0087738D01*
X0265479Y0087895D01*
X0265500Y0088052D01*
X0265526Y0088208D01*
X0265556Y0088364D01*
X0265589Y0088519D01*
X0265627Y0088672D01*
X0265668Y0088825D01*
X0265713Y0088977D01*
X0265762Y0089128D01*
X0265815Y0089277D01*
X0265871Y0089425D01*
X0265931Y0089571D01*
X0265995Y0089716D01*
X0266063Y0089859D01*
X0266134Y0090001D01*
X0266208Y0090141D01*
X0266286Y0090278D01*
X0266368Y0090414D01*
X0266452Y0090548D01*
X0266541Y0090679D01*
X0266632Y0090808D01*
X0266727Y0090935D01*
X0266824Y0091060D01*
X0266925Y0091182D01*
X0267029Y0091301D01*
X0267136Y0091418D01*
X0267246Y0091532D01*
X0267359Y0091643D01*
X0267474Y0091752D01*
X0267592Y0091857D01*
X0267713Y0091959D01*
X0267836Y0092059D01*
X0267962Y0092155D01*
X0268090Y0092248D01*
X0268220Y0092338D01*
X0268353Y0092424D01*
X0268488Y0092508D01*
X0268624Y0092587D01*
X0268763Y0092664D01*
X0268904Y0092736D01*
X0269046Y0092806D01*
X0269190Y0092871D01*
X0269336Y0092933D01*
X0269483Y0092991D01*
X0269632Y0093046D01*
X0269782Y0093097D01*
X0269933Y0093144D01*
X0270085Y0093187D01*
X0270238Y0093226D01*
X0270393Y0093262D01*
X0270548Y0093293D01*
X0270704Y0093321D01*
X0270860Y0093345D01*
X0271017Y0093365D01*
X0271175Y0093381D01*
X0271332Y0093393D01*
X0271491Y0093401D01*
X0271649Y0093405D01*
X0271807Y0093405D01*
X0271965Y0093401D01*
X0272124Y0093393D01*
X0272281Y0093381D01*
X0272439Y0093365D01*
X0272596Y0093345D01*
X0272752Y0093321D01*
X0272908Y0093293D01*
X0273063Y0093262D01*
X0273218Y0093226D01*
X0273371Y0093187D01*
X0273523Y0093144D01*
X0273674Y0093097D01*
X0273824Y0093046D01*
X0273973Y0092991D01*
X0274120Y0092933D01*
X0274266Y0092871D01*
X0274410Y0092806D01*
X0274552Y0092736D01*
X0274693Y0092664D01*
X0274832Y0092587D01*
X0274968Y0092508D01*
X0275103Y0092424D01*
X0275236Y0092338D01*
X0275366Y0092248D01*
X0275494Y0092155D01*
X0275620Y0092059D01*
X0275743Y0091959D01*
X0275864Y0091857D01*
X0275982Y0091752D01*
X0276097Y0091643D01*
X0276210Y0091532D01*
X0276320Y0091418D01*
X0276427Y0091301D01*
X0276531Y0091182D01*
X0276632Y0091060D01*
X0276729Y0090935D01*
X0276824Y0090808D01*
X0276915Y0090679D01*
X0277004Y0090548D01*
X0277088Y0090414D01*
X0277170Y0090278D01*
X0277248Y0090141D01*
X0277322Y0090001D01*
X0277393Y0089859D01*
X0277461Y0089716D01*
X0277525Y0089571D01*
X0277585Y0089425D01*
X0277641Y0089277D01*
X0277694Y0089128D01*
X0277743Y0088977D01*
X0277788Y0088825D01*
X0277829Y0088672D01*
X0277867Y0088519D01*
X0277900Y0088364D01*
X0277930Y0088208D01*
X0277956Y0088052D01*
X0277977Y0087895D01*
X0277995Y0087738D01*
X0278009Y0087580D01*
X0278019Y0087422D01*
X0278025Y0087264D01*
X0278027Y0087106D01*
X0278025Y0086948D01*
X0278019Y0086790D01*
X0278009Y0086632D01*
X0277995Y0086474D01*
X0277977Y0086317D01*
X0277956Y0086160D01*
X0277930Y0086004D01*
X0277900Y0085848D01*
X0277867Y0085693D01*
X0277829Y0085540D01*
X0277788Y0085387D01*
X0277743Y0085235D01*
X0277694Y0085084D01*
X0277641Y0084935D01*
X0277585Y0084787D01*
X0277525Y0084641D01*
X0277461Y0084496D01*
X0277393Y0084353D01*
X0277322Y0084211D01*
X0277248Y0084071D01*
X0277170Y0083934D01*
X0277088Y0083798D01*
X0277004Y0083664D01*
X0276915Y0083533D01*
X0276824Y0083404D01*
X0276729Y0083277D01*
X0276632Y0083152D01*
X0276531Y0083030D01*
X0276427Y0082911D01*
X0276320Y0082794D01*
X0276210Y0082680D01*
X0276097Y0082569D01*
X0275982Y0082460D01*
X0275864Y0082355D01*
X0275743Y0082253D01*
X0275620Y0082153D01*
X0275494Y0082057D01*
X0275366Y0081964D01*
X0275236Y0081874D01*
X0275103Y0081788D01*
X0274968Y0081704D01*
X0274832Y0081625D01*
X0274693Y0081548D01*
X0274552Y0081476D01*
X0274410Y0081406D01*
X0274266Y0081341D01*
X0274120Y0081279D01*
X0273973Y0081221D01*
X0273824Y0081166D01*
X0273674Y0081115D01*
X0273523Y0081068D01*
X0273371Y0081025D01*
X0273218Y0080986D01*
X0273063Y0080950D01*
X0272908Y0080919D01*
X0272752Y0080891D01*
X0272596Y0080867D01*
X0272439Y0080847D01*
X0272281Y0080831D01*
X0272124Y0080819D01*
X0271965Y0080811D01*
X0271807Y0080807D01*
X0271649Y0080807D01*
X0271491Y0080811D01*
X0271332Y0080819D01*
X0271175Y0080831D01*
X0271017Y0080847D01*
X0270860Y0080867D01*
X0270704Y0080891D01*
X0270548Y0080919D01*
X0270393Y0080950D01*
X0270238Y0080986D01*
X0270085Y0081025D01*
X0269933Y0081068D01*
X0269782Y0081115D01*
X0269632Y0081166D01*
X0269483Y0081221D01*
X0269336Y0081279D01*
X0269190Y0081341D01*
X0269046Y0081406D01*
X0268904Y0081476D01*
X0268763Y0081548D01*
X0268624Y0081625D01*
X0268488Y0081704D01*
X0268353Y0081788D01*
X0268220Y0081874D01*
X0268090Y0081964D01*
X0267962Y0082057D01*
X0267836Y0082153D01*
X0267713Y0082253D01*
X0267592Y0082355D01*
X0267474Y0082460D01*
X0267359Y0082569D01*
X0267246Y0082680D01*
X0267136Y0082794D01*
X0267029Y0082911D01*
X0266925Y0083030D01*
X0266824Y0083152D01*
X0266727Y0083277D01*
X0266632Y0083404D01*
X0266541Y0083533D01*
X0266452Y0083664D01*
X0266368Y0083798D01*
X0266286Y0083934D01*
X0266208Y0084071D01*
X0266134Y0084211D01*
X0266063Y0084353D01*
X0265995Y0084496D01*
X0265931Y0084641D01*
X0265871Y0084787D01*
X0265815Y0084935D01*
X0265762Y0085084D01*
X0265713Y0085235D01*
X0265668Y0085387D01*
X0265627Y0085540D01*
X0265589Y0085693D01*
X0265556Y0085848D01*
X0265526Y0086004D01*
X0265500Y0086160D01*
X0265479Y0086317D01*
X0265461Y0086474D01*
X0265447Y0086632D01*
X0265437Y0086790D01*
X0265431Y0086948D01*
X0265429Y0087106D01*
X0265429Y0042106D02*
X0265431Y0042264D01*
X0265437Y0042422D01*
X0265447Y0042580D01*
X0265461Y0042738D01*
X0265479Y0042895D01*
X0265500Y0043052D01*
X0265526Y0043208D01*
X0265556Y0043364D01*
X0265589Y0043519D01*
X0265627Y0043672D01*
X0265668Y0043825D01*
X0265713Y0043977D01*
X0265762Y0044128D01*
X0265815Y0044277D01*
X0265871Y0044425D01*
X0265931Y0044571D01*
X0265995Y0044716D01*
X0266063Y0044859D01*
X0266134Y0045001D01*
X0266208Y0045141D01*
X0266286Y0045278D01*
X0266368Y0045414D01*
X0266452Y0045548D01*
X0266541Y0045679D01*
X0266632Y0045808D01*
X0266727Y0045935D01*
X0266824Y0046060D01*
X0266925Y0046182D01*
X0267029Y0046301D01*
X0267136Y0046418D01*
X0267246Y0046532D01*
X0267359Y0046643D01*
X0267474Y0046752D01*
X0267592Y0046857D01*
X0267713Y0046959D01*
X0267836Y0047059D01*
X0267962Y0047155D01*
X0268090Y0047248D01*
X0268220Y0047338D01*
X0268353Y0047424D01*
X0268488Y0047508D01*
X0268624Y0047587D01*
X0268763Y0047664D01*
X0268904Y0047736D01*
X0269046Y0047806D01*
X0269190Y0047871D01*
X0269336Y0047933D01*
X0269483Y0047991D01*
X0269632Y0048046D01*
X0269782Y0048097D01*
X0269933Y0048144D01*
X0270085Y0048187D01*
X0270238Y0048226D01*
X0270393Y0048262D01*
X0270548Y0048293D01*
X0270704Y0048321D01*
X0270860Y0048345D01*
X0271017Y0048365D01*
X0271175Y0048381D01*
X0271332Y0048393D01*
X0271491Y0048401D01*
X0271649Y0048405D01*
X0271807Y0048405D01*
X0271965Y0048401D01*
X0272124Y0048393D01*
X0272281Y0048381D01*
X0272439Y0048365D01*
X0272596Y0048345D01*
X0272752Y0048321D01*
X0272908Y0048293D01*
X0273063Y0048262D01*
X0273218Y0048226D01*
X0273371Y0048187D01*
X0273523Y0048144D01*
X0273674Y0048097D01*
X0273824Y0048046D01*
X0273973Y0047991D01*
X0274120Y0047933D01*
X0274266Y0047871D01*
X0274410Y0047806D01*
X0274552Y0047736D01*
X0274693Y0047664D01*
X0274832Y0047587D01*
X0274968Y0047508D01*
X0275103Y0047424D01*
X0275236Y0047338D01*
X0275366Y0047248D01*
X0275494Y0047155D01*
X0275620Y0047059D01*
X0275743Y0046959D01*
X0275864Y0046857D01*
X0275982Y0046752D01*
X0276097Y0046643D01*
X0276210Y0046532D01*
X0276320Y0046418D01*
X0276427Y0046301D01*
X0276531Y0046182D01*
X0276632Y0046060D01*
X0276729Y0045935D01*
X0276824Y0045808D01*
X0276915Y0045679D01*
X0277004Y0045548D01*
X0277088Y0045414D01*
X0277170Y0045278D01*
X0277248Y0045141D01*
X0277322Y0045001D01*
X0277393Y0044859D01*
X0277461Y0044716D01*
X0277525Y0044571D01*
X0277585Y0044425D01*
X0277641Y0044277D01*
X0277694Y0044128D01*
X0277743Y0043977D01*
X0277788Y0043825D01*
X0277829Y0043672D01*
X0277867Y0043519D01*
X0277900Y0043364D01*
X0277930Y0043208D01*
X0277956Y0043052D01*
X0277977Y0042895D01*
X0277995Y0042738D01*
X0278009Y0042580D01*
X0278019Y0042422D01*
X0278025Y0042264D01*
X0278027Y0042106D01*
X0278025Y0041948D01*
X0278019Y0041790D01*
X0278009Y0041632D01*
X0277995Y0041474D01*
X0277977Y0041317D01*
X0277956Y0041160D01*
X0277930Y0041004D01*
X0277900Y0040848D01*
X0277867Y0040693D01*
X0277829Y0040540D01*
X0277788Y0040387D01*
X0277743Y0040235D01*
X0277694Y0040084D01*
X0277641Y0039935D01*
X0277585Y0039787D01*
X0277525Y0039641D01*
X0277461Y0039496D01*
X0277393Y0039353D01*
X0277322Y0039211D01*
X0277248Y0039071D01*
X0277170Y0038934D01*
X0277088Y0038798D01*
X0277004Y0038664D01*
X0276915Y0038533D01*
X0276824Y0038404D01*
X0276729Y0038277D01*
X0276632Y0038152D01*
X0276531Y0038030D01*
X0276427Y0037911D01*
X0276320Y0037794D01*
X0276210Y0037680D01*
X0276097Y0037569D01*
X0275982Y0037460D01*
X0275864Y0037355D01*
X0275743Y0037253D01*
X0275620Y0037153D01*
X0275494Y0037057D01*
X0275366Y0036964D01*
X0275236Y0036874D01*
X0275103Y0036788D01*
X0274968Y0036704D01*
X0274832Y0036625D01*
X0274693Y0036548D01*
X0274552Y0036476D01*
X0274410Y0036406D01*
X0274266Y0036341D01*
X0274120Y0036279D01*
X0273973Y0036221D01*
X0273824Y0036166D01*
X0273674Y0036115D01*
X0273523Y0036068D01*
X0273371Y0036025D01*
X0273218Y0035986D01*
X0273063Y0035950D01*
X0272908Y0035919D01*
X0272752Y0035891D01*
X0272596Y0035867D01*
X0272439Y0035847D01*
X0272281Y0035831D01*
X0272124Y0035819D01*
X0271965Y0035811D01*
X0271807Y0035807D01*
X0271649Y0035807D01*
X0271491Y0035811D01*
X0271332Y0035819D01*
X0271175Y0035831D01*
X0271017Y0035847D01*
X0270860Y0035867D01*
X0270704Y0035891D01*
X0270548Y0035919D01*
X0270393Y0035950D01*
X0270238Y0035986D01*
X0270085Y0036025D01*
X0269933Y0036068D01*
X0269782Y0036115D01*
X0269632Y0036166D01*
X0269483Y0036221D01*
X0269336Y0036279D01*
X0269190Y0036341D01*
X0269046Y0036406D01*
X0268904Y0036476D01*
X0268763Y0036548D01*
X0268624Y0036625D01*
X0268488Y0036704D01*
X0268353Y0036788D01*
X0268220Y0036874D01*
X0268090Y0036964D01*
X0267962Y0037057D01*
X0267836Y0037153D01*
X0267713Y0037253D01*
X0267592Y0037355D01*
X0267474Y0037460D01*
X0267359Y0037569D01*
X0267246Y0037680D01*
X0267136Y0037794D01*
X0267029Y0037911D01*
X0266925Y0038030D01*
X0266824Y0038152D01*
X0266727Y0038277D01*
X0266632Y0038404D01*
X0266541Y0038533D01*
X0266452Y0038664D01*
X0266368Y0038798D01*
X0266286Y0038934D01*
X0266208Y0039071D01*
X0266134Y0039211D01*
X0266063Y0039353D01*
X0265995Y0039496D01*
X0265931Y0039641D01*
X0265871Y0039787D01*
X0265815Y0039935D01*
X0265762Y0040084D01*
X0265713Y0040235D01*
X0265668Y0040387D01*
X0265627Y0040540D01*
X0265589Y0040693D01*
X0265556Y0040848D01*
X0265526Y0041004D01*
X0265500Y0041160D01*
X0265479Y0041317D01*
X0265461Y0041474D01*
X0265447Y0041632D01*
X0265437Y0041790D01*
X0265431Y0041948D01*
X0265429Y0042106D01*
D11*
X0166247Y0066767D03*
X0164279Y0066767D03*
X0162310Y0066767D03*
X0160342Y0066767D03*
X0158373Y0066767D03*
X0156405Y0066767D03*
X0154436Y0066767D03*
X0152468Y0066767D03*
X0150499Y0066767D03*
X0148531Y0066767D03*
X0146562Y0066767D03*
X0144594Y0066767D03*
X0142625Y0066767D03*
X0140657Y0066767D03*
X0138688Y0066767D03*
X0136720Y0066767D03*
X0134751Y0066767D03*
X0132783Y0066767D03*
X0130814Y0066767D03*
X0128846Y0066767D03*
X0126877Y0066767D03*
X0124909Y0066767D03*
X0122940Y0066767D03*
X0120972Y0066767D03*
X0119003Y0066767D03*
X0117035Y0066767D03*
X0115066Y0066767D03*
X0113098Y0066767D03*
X0111129Y0066767D03*
X0109161Y0066767D03*
D12*
X0178165Y0077112D03*
D13*
X0096719Y0077112D03*
D14*
X0080724Y0102949D03*
X0055134Y0102949D03*
X0055134Y0120665D03*
X0080724Y0120665D03*
D15*
X0112713Y0056197D03*
X0120587Y0056197D03*
X0120587Y0047831D03*
X0112713Y0047831D03*
X0112713Y0039465D03*
X0120587Y0039465D03*
D16*
X0125016Y0031591D03*
X0125016Y0023717D03*
X0125016Y0017319D03*
X0125016Y0009445D03*
X0096965Y0009445D03*
X0096965Y0017319D03*
X0096965Y0023717D03*
X0096965Y0031591D03*
X0173244Y0031098D03*
X0182102Y0031098D03*
X0182102Y0023224D03*
X0173244Y0023224D03*
D17*
X0116650Y0030114D03*
X0104839Y0030114D03*
X0105331Y0008461D03*
X0117142Y0008461D03*
D18*
X0153480Y0028791D02*
X0153480Y0034391D01*
X0163480Y0034391D02*
X0163480Y0028791D01*
D19*
X0189386Y0029327D03*
X0189386Y0033067D03*
X0189386Y0036807D03*
X0198441Y0036807D03*
X0198441Y0033067D03*
X0198441Y0029327D03*
X0209071Y0021059D03*
X0209071Y0017319D03*
X0209071Y0013579D03*
X0218126Y0013579D03*
X0218126Y0017319D03*
X0218126Y0021059D03*
D20*
X0244028Y0050606D03*
X0252028Y0054606D03*
X0244028Y0058606D03*
X0252028Y0062606D03*
X0244028Y0066606D03*
X0252028Y0070606D03*
X0244028Y0074606D03*
X0252028Y0078606D03*
X0072933Y0078520D03*
X0064933Y0074520D03*
X0072933Y0070520D03*
X0064933Y0066520D03*
X0072933Y0062520D03*
X0064933Y0058520D03*
X0072933Y0054520D03*
X0064933Y0050520D03*
D21*
X0072850Y0078539D03*
X0244110Y0050587D03*
D22*
X0244110Y0050291D02*
X0261827Y0050291D01*
X0261827Y0092122D01*
X0156512Y0092122D01*
X0156512Y0067516D01*
X0154543Y0066531D02*
X0154543Y0052752D01*
X0193913Y0052752D01*
X0193913Y0078835D01*
X0251984Y0078835D01*
X0251984Y0070469D02*
X0196374Y0070469D01*
X0196374Y0049799D01*
X0163402Y0049799D01*
X0163402Y0031591D01*
X0153559Y0031591D02*
X0147161Y0031591D01*
X0136827Y0031591D02*
X0115665Y0031591D01*
X0115665Y0030606D01*
X0106807Y0032575D02*
X0081709Y0032575D01*
X0064976Y0038972D02*
X0064976Y0049799D01*
X0073343Y0047831D02*
X0073343Y0053736D01*
X0073343Y0054228D01*
X0081709Y0052752D02*
X0081709Y0062594D01*
X0072850Y0062594D01*
X0085646Y0056197D02*
X0085646Y0070469D01*
X0073343Y0070469D01*
X0085646Y0056197D02*
X0112220Y0056197D01*
X0122063Y0056197D02*
X0131413Y0056197D01*
X0147161Y0056197D02*
X0148638Y0056197D01*
X0148638Y0065547D01*
X0150606Y0066039D02*
X0150606Y0047831D01*
X0147161Y0047831D01*
X0131413Y0047831D02*
X0122555Y0047831D01*
X0112713Y0047831D02*
X0073343Y0047831D01*
X0064976Y0038972D02*
X0112713Y0038972D01*
X0121571Y0039465D02*
X0131413Y0039465D01*
X0147161Y0039465D02*
X0152575Y0039465D01*
X0152575Y0065547D01*
X0144701Y0067516D02*
X0144701Y0077358D01*
X0139780Y0077358D02*
X0138795Y0077358D01*
X0138795Y0067516D01*
X0136827Y0066531D02*
X0136827Y0031591D01*
X0125016Y0023224D02*
X0124524Y0023224D01*
X0140764Y0017319D02*
X0182102Y0017319D01*
X0182102Y0022240D01*
X0173244Y0021256D02*
X0142732Y0021256D01*
X0142732Y0066531D01*
X0140764Y0066531D02*
X0140764Y0017319D01*
X0173244Y0029130D02*
X0189484Y0029130D01*
X0189484Y0033067D02*
X0193913Y0033067D01*
X0193913Y0017319D01*
X0182102Y0017319D01*
X0202772Y0013382D02*
X0202772Y0011413D01*
X0202772Y0013382D02*
X0209661Y0013382D01*
X0199327Y0029130D02*
X0229839Y0029130D01*
X0205724Y0036512D02*
X0198343Y0036512D01*
X0205724Y0036512D02*
X0205724Y0062594D01*
X0251984Y0062594D01*
X0244110Y0066531D02*
X0201787Y0066531D01*
X0201787Y0041433D01*
X0188500Y0041433D01*
X0188500Y0037004D01*
X0198835Y0033067D02*
X0203756Y0033067D01*
X0237713Y0054720D02*
X0251984Y0054720D01*
X0166354Y0067516D02*
X0166354Y0077358D01*
X0160449Y0067024D02*
X0160449Y0056689D01*
X0162909Y0060626D02*
X0163402Y0060626D01*
X0134858Y0067516D02*
X0134858Y0077358D01*
X0119110Y0077358D02*
X0117142Y0077358D01*
X0119110Y0077358D02*
X0119110Y0068008D01*
X0121079Y0067024D02*
X0121079Y0111807D01*
X0080724Y0111807D01*
X0080724Y0120665D01*
X0056118Y0120665D01*
X0054642Y0102949D02*
X0111236Y0102949D01*
X0111236Y0067516D01*
X0109268Y0067516D02*
X0109268Y0077358D01*
X0107299Y0077358D01*
X0123047Y0067516D02*
X0123047Y0092122D01*
X0156512Y0092122D01*
D23*
X0166354Y0077358D02*
X0173736Y0077358D01*
X0107299Y0077358D02*
X0101886Y0077358D01*
X0096965Y0023224D02*
X0096965Y0017319D01*
X0098441Y0020272D01*
X0125016Y0020272D01*
D24*
X0117142Y0020272D03*
X0106807Y0020272D03*
X0136827Y0031591D03*
X0147161Y0031591D03*
X0147161Y0039465D03*
X0131413Y0039465D03*
X0131413Y0047831D03*
X0147161Y0047831D03*
X0147161Y0056197D03*
X0160449Y0056689D03*
X0131413Y0056197D03*
X0081709Y0052752D03*
X0081709Y0032575D03*
X0107299Y0077358D03*
X0117142Y0077358D03*
X0134858Y0077358D03*
X0139780Y0077358D03*
X0144701Y0077358D03*
X0166354Y0077358D03*
X0203756Y0033067D03*
X0202772Y0011413D03*
X0223441Y0009445D03*
D25*
X0285528Y0033906D03*
X0285528Y0095306D03*
X0031433Y0095220D03*
X0031433Y0033820D03*
D26*
X0056118Y0058165D02*
X0056118Y0009445D01*
X0107299Y0009445D01*
X0119110Y0009445D02*
X0197850Y0009445D01*
X0197850Y0017319D01*
X0209661Y0017319D01*
X0209661Y0021256D02*
X0197850Y0021256D01*
X0197850Y0017319D01*
X0217535Y0021256D02*
X0229346Y0021256D01*
X0229839Y0054720D01*
X0237713Y0054720D01*
X0251984Y0054720D02*
X0258382Y0054720D01*
X0258382Y0084740D01*
X0189976Y0084740D01*
X0189976Y0060626D01*
X0163402Y0060626D01*
X0163402Y0066039D01*
X0162909Y0066531D02*
X0162909Y0060626D01*
X0229346Y0021748D02*
X0229346Y0017319D01*
X0218028Y0017319D01*
X0217535Y0013382D02*
X0223441Y0013382D01*
X0223441Y0009445D01*
X0064976Y0058165D02*
X0056118Y0058165D01*
M02*
